<svg width="24" height="20" viewBox="0 0 24 20" fill="none" xmlns="http://www.w3.org/2000/svg">
<path d="M0.292501 9.2925L9.2925 0.292499C9.43236 0.152488 9.61061 0.0571205 9.80469 0.0184701C9.99878 -0.0201803 10.2 -0.000375718 10.3828 0.0753768C10.5656 0.151129 10.7219 0.279423 10.8317 0.444017C10.9416 0.608611 11.0002 0.802104 11 0.999999V9H23C23.2652 9 23.5196 9.10536 23.7071 9.29289C23.8946 9.48043 24 9.73478 24 10C24 10.2652 23.8946 10.5196 23.7071 10.7071C23.5196 10.8946 23.2652 11 23 11H11V19C11.0002 19.1979 10.9416 19.3914 10.8317 19.556C10.7219 19.7206 10.5656 19.8489 10.3828 19.9246C10.2 20.0004 9.99878 20.0202 9.80469 19.9815C9.61061 19.9429 9.43236 19.8475 9.2925 19.7075L0.292501 10.7075C0.199524 10.6146 0.125765 10.5043 0.0754414 10.3829C0.025116 10.2615 -0.00078392 10.1314 -0.00078392 10C-0.00078392 9.86858 0.025116 9.73846 0.0754414 9.61706C0.125765 9.49566 0.199524 9.38537 0.292501 9.2925ZM9 16.5862V3.41375L2.41375 10L9 16.5862Z" fill="white"/>
</svg>
