<svg width="53" height="60" viewBox="0 0 53 60" fill="none" xmlns="http://www.w3.org/2000/svg">
<path d="M6.77745 16.4151C6.77745 12.0615 8.49962 7.8863 11.5651 4.80787C14.6306 1.72944 18.7882 0 23.1235 0C27.4587 0 31.6164 1.72944 34.6818 4.80787C37.7473 7.8863 39.4695 12.0615 39.4695 16.4151C39.4695 16.8655 39.2913 17.2974 38.9742 17.6158C38.6571 17.9343 38.227 18.1132 37.7785 18.1132C37.33 18.1132 36.8999 17.9343 36.5828 17.6158C36.2657 17.2974 36.0875 16.8655 36.0875 16.4151C36.0875 12.9623 34.7217 9.65088 32.2904 7.20936C29.8592 4.76785 26.5617 3.39623 23.1235 3.39623C19.6852 3.39623 16.3877 4.76785 13.9565 7.20936C11.5252 9.65088 10.1594 12.9623 10.1594 16.4151C10.1594 16.8655 9.98123 17.2974 9.66411 17.6158C9.347 17.9343 8.91689 18.1132 8.46842 18.1132C8.01995 18.1132 7.58984 17.9343 7.27273 17.6158C6.95561 17.2974 6.77745 16.8655 6.77745 16.4151ZM45.6697 29.434C44.203 29.4326 42.7699 29.8754 41.5578 30.7047C41.3071 29.5452 40.7808 28.4637 40.0239 27.5526C39.267 26.6414 38.3019 25.9276 37.2109 25.4719C36.12 25.0163 34.9354 24.8324 33.7584 24.9358C32.5813 25.0392 31.4466 25.427 30.451 26.066V16.4151C30.451 14.4635 29.679 12.5918 28.3048 11.2119C26.9306 9.83187 25.0668 9.0566 23.1235 9.0566C21.1801 9.0566 19.3163 9.83187 17.9421 11.2119C16.5679 12.5918 15.7959 14.4635 15.7959 16.4151V41.0377L13.6738 37.6132C12.6972 35.9243 11.0926 34.6942 9.21288 34.1934C7.33317 33.6926 5.33235 33.9622 3.65058 34.9429C1.96881 35.9236 0.743848 37.535 0.245181 39.4227C-0.253487 41.3103 0.0149837 43.3196 0.991531 45.0085L9.25472 59.1594C9.4863 59.5359 9.8551 59.8068 10.2826 59.9143C10.71 60.0218 11.1624 59.9574 11.5434 59.735C11.9243 59.5125 12.2037 59.1495 12.3221 58.7233C12.4405 58.297 12.3886 57.8412 12.1773 57.4528L3.92254 43.3019C3.66347 42.8512 3.49532 42.3538 3.4277 41.8379C3.36008 41.322 3.3943 40.7977 3.52843 40.2951C3.7993 39.28 4.46062 38.4146 5.36691 37.8891C6.27319 37.3637 7.35021 37.2214 8.36102 37.4934C8.86152 37.6281 9.33071 37.8604 9.74179 38.1772C10.1529 38.494 10.4978 38.889 10.7569 39.3396C10.7647 39.3566 10.7741 39.3727 10.785 39.3877L16.0496 47.8783C16.2434 48.1924 16.534 48.4344 16.8772 48.5676C17.2203 48.7009 17.5975 48.7181 17.9513 48.6166C18.3051 48.5151 18.6162 48.3005 18.8376 48.0054C19.059 47.7102 19.1784 47.3506 19.1779 46.9811V16.4151C19.1779 15.3642 19.5936 14.3564 20.3335 13.6133C21.0734 12.8703 22.077 12.4528 23.1235 12.4528C24.1699 12.4528 25.1735 12.8703 25.9134 13.6133C26.6533 14.3564 27.069 15.3642 27.069 16.4151V35.6604C27.069 36.1107 27.2472 36.5427 27.5643 36.8611C27.8814 37.1796 28.3115 37.3585 28.76 37.3585C29.2085 37.3585 29.6386 37.1796 29.9557 36.8611C30.2728 36.5427 30.451 36.1107 30.451 35.6604V32.2641C30.451 31.2133 30.8667 30.2055 31.6066 29.4624C32.3465 28.7193 33.3501 28.3019 34.3966 28.3019C35.443 28.3019 36.4466 28.7193 37.1865 29.4624C37.9265 30.2055 38.3421 31.2133 38.3421 32.2641V37.9245C38.3421 38.3749 38.5203 38.8068 38.8374 39.1253C39.1545 39.4437 39.5846 39.6226 40.0331 39.6226C40.4816 39.6226 40.9117 39.4437 41.2288 39.1253C41.5459 38.8068 41.7241 38.3749 41.7241 37.9245V36.7924C41.7241 35.7416 42.1398 34.7338 42.8797 33.9907C43.6197 33.2476 44.6232 32.8302 45.6697 32.8302C46.7161 32.8302 47.7197 33.2476 48.4596 33.9907C49.1996 34.7338 49.6153 35.7416 49.6153 36.7924V46.9811C49.6153 53.2443 47.5579 57.5038 47.5382 57.5434C47.3422 57.945 47.3118 58.408 47.4538 58.832C47.5957 59.2559 47.8985 59.6065 48.2963 59.8075C48.5291 59.9316 48.7881 59.9976 49.0516 60C49.3664 60.0006 49.6751 59.913 49.9429 59.747C50.2108 59.581 50.4272 59.3432 50.5678 59.0604C50.6665 58.8623 53 54.0934 53 46.9811V36.7924C53 35.8259 52.8104 34.8688 52.442 33.9758C52.0735 33.0829 51.5335 32.2715 50.8528 31.5882C50.1721 30.9049 49.364 30.3629 48.4746 29.9933C47.5853 29.6236 46.6322 29.4336 45.6697 29.434Z" fill="white"/>
</svg>
