<svg width="90" height="90" viewBox="0 0 90 90" fill="none" xmlns="http://www.w3.org/2000/svg">
<g clip-path="url(#clip0_98_3336)">
<path d="M86.2714 36.3977L42.5885 2.69613C40.6584 1.2071 37.8867 1.5646 36.3977 3.49464L2.69614 47.1776C1.20711 49.1076 1.56461 51.8793 3.49465 53.3683L47.1776 87.0699C49.1076 88.5589 51.8793 88.2014 53.3683 86.2714L87.0699 42.5885C88.5589 40.6584 88.2014 37.8867 86.2714 36.3977Z" fill="#F7BE2F"/>
<path d="M54.4436 39.7159C53.6769 39.1294 53.0809 38.3477 52.7191 37.4523C52.5074 36.8875 51.8792 36.6017 51.3144 36.8134C51.1311 36.882 50.9701 36.9988 50.8474 37.1514L44.8823 44.8831L37.1943 38.9517C36.7091 38.5836 36.6148 37.8908 36.9829 37.4056C37.0946 37.2593 37.2402 37.143 37.4073 37.0681C40.235 35.9318 41.6052 32.719 40.4696 29.8919C39.3333 27.0641 36.1205 25.6939 33.2934 26.8295C32.379 27.1965 31.5802 27.8018 30.9787 28.583C30.386 29.3448 30.0078 30.2522 29.8852 31.2101C29.8237 31.8101 29.2885 32.246 28.6885 32.1845C28.4938 32.1647 28.3084 32.0925 28.151 31.976L19.546 25.3373L36.3977 3.49463C37.887 1.56425 40.6581 1.20683 42.5885 2.69613L64.4296 19.5466L57.8239 28.1087C57.4479 28.5879 57.5326 29.282 58.0118 29.6579C58.1568 29.7711 58.3272 29.8466 58.5079 29.8766C61.5314 30.2583 63.672 33.0182 63.2909 36.041C62.9093 39.0645 60.1493 41.2051 57.1266 40.824C56.149 40.7011 55.2227 40.3183 54.4428 39.7153L54.4436 39.7159Z" fill="#FFCA55"/>
<path d="M70.2194 64.4296L53.3689 86.2707C51.8796 88.2011 49.1086 88.5585 47.1782 87.0692L25.3371 70.2187L31.9764 61.613C32.3341 61.1284 32.2327 60.4449 31.7473 60.0866C31.5899 59.9702 31.4039 59.8987 31.2097 59.8782C30.2518 59.7555 29.3446 59.3787 28.5826 58.7846C26.1682 56.9256 25.7179 53.4615 27.5769 51.0471C29.4359 48.6327 32.9 48.1824 35.3144 50.0414C36.0941 50.643 36.7 51.441 37.0678 52.356C37.319 52.9115 37.9724 53.1583 38.5278 52.9071C38.6955 52.8314 38.8412 52.7151 38.9522 52.5696L44.8835 44.8816L52.6152 50.8466C53.0841 51.2246 53.1594 51.9114 52.7809 52.3812C52.6582 52.5338 52.4964 52.65 52.3138 52.7192C51.4183 53.0809 50.6364 53.6756 50.0501 54.4436C48.1865 56.8544 48.6299 60.3194 51.0407 62.183C53.4515 64.0467 56.9164 63.6033 58.7801 61.1925C59.3817 60.4127 59.7653 59.4871 59.8888 58.5087C59.9909 57.9077 60.5602 57.5031 61.1612 57.6052C61.3427 57.6358 61.513 57.7113 61.6573 57.8239L70.2194 64.4296Z" fill="#EFA829"/>
<path d="M42.7788 21.0912L44.4565 18.8864L49.0269 22.3643L44.6858 28.0692C43.1295 27.5542 41.6057 26.7293 40.1144 25.5945C38.489 24.3577 37.5876 22.9263 37.4102 21.3005C37.2381 19.6788 37.8113 18.0016 39.1298 16.2689C40.4482 14.5362 41.9542 13.5645 43.6476 13.3539C45.3452 13.1379 47.0764 13.7013 48.8413 15.0443C50.118 16.0158 51.0912 17.1079 51.7609 18.3205L49.1514 19.8797C48.6807 18.9287 48.0055 18.1184 47.1258 17.449C46.2514 16.7836 45.3801 16.5484 44.5118 16.7432C43.6436 16.938 42.8278 17.537 42.0645 18.5401C41.3052 19.5379 40.9342 20.4541 40.9513 21.2888C40.9684 22.1234 41.3659 22.8367 42.1437 23.4286C42.5782 23.7592 42.9998 24.0122 43.4084 24.1877L44.6697 22.5301L42.7788 21.0912Z" fill="black"/>
<path d="M71.2179 50.2493L68.0878 47.8674L69.0852 45.4881L65.6413 42.8675L63.5979 44.4509L60.4517 42.0568L71.992 34.054L75.8141 36.9624L71.2179 50.2493ZM68.0185 40.979L70.2715 42.6934C71.5167 39.6768 72.291 37.8688 72.5945 37.2696C71.981 37.8532 70.4557 39.0896 68.0185 40.979Z" fill="black"/>
<path d="M23.1682 49.4023C23.6335 48.7907 24.4215 47.8275 25.5321 46.5127L25.4678 46.4637L17.5432 52.4532L14.8154 50.3775L18.4554 41.1023L18.391 41.0533C17.5337 42.3915 16.8152 43.4415 16.2356 44.2032L12.7394 48.7978L10.2047 46.8691L18.2625 36.2798L22.0765 39.1821L18.5625 48.3752L18.6188 48.4181L26.5021 42.5497L30.3242 45.4581L22.2665 56.0473L19.6353 54.0451L23.1682 49.4023Z" fill="black"/>
<path d="M46.9572 73.8882L45.1815 76.2217L38.8972 71.4397L46.9549 60.8504L53.2393 65.6324L51.4881 67.9337L48.0683 65.3315L46.8009 66.9971L49.9712 69.4096L48.2262 71.7028L45.0559 69.2904L43.5374 71.2859L46.9572 73.8882Z" fill="black"/>
</g>
<defs>
<clipPath id="clip0_98_3336">
<rect width="64" height="64" fill="white" transform="translate(39.0938) rotate(37.6503)"/>
</clipPath>
</defs>
</svg>
