<svg width="36" height="36" viewBox="0 0 36 36" fill="none" xmlns="http://www.w3.org/2000/svg">
<path d="M19.799 0.501665C21.0761 0.496765 22.3531 0.509599 23.6298 0.540165L23.9693 0.552415C24.3613 0.566415 24.748 0.583915 25.2153 0.604915C27.0773 0.692415 28.3478 0.986415 29.4625 1.41867C30.6175 1.86317 31.5905 2.46516 32.5635 3.43816C33.4532 4.31248 34.1417 5.37007 34.5813 6.53741C35.0135 7.65216 35.3075 8.92441 35.395 10.7864C35.416 11.2519 35.4335 11.6404 35.4475 12.0324L35.458 12.3719C35.4891 13.648 35.5025 14.9245 35.4983 16.2009L35.5 17.5064V19.7989C35.5043 21.076 35.4909 22.353 35.4598 23.6297L35.4493 23.9692C35.4353 24.3612 35.4178 24.7479 35.3968 25.2152C35.3093 27.0772 35.0118 28.3477 34.5813 29.4624C34.1432 30.631 33.4545 31.6895 32.5635 32.5634C31.6885 33.453 30.6303 34.1415 29.4625 34.5812C28.3478 35.0134 27.0773 35.3074 25.2153 35.3949C24.748 35.4159 24.3613 35.4334 23.9693 35.4474L23.6298 35.4579C22.3531 35.489 21.0761 35.5024 19.799 35.4982L18.4935 35.4999H16.2028C14.9257 35.5042 13.6487 35.4908 12.372 35.4597L12.0325 35.4492C11.6171 35.4341 11.2018 35.4166 10.7865 35.3967C8.92453 35.3092 7.65403 35.0117 6.53753 34.5812C5.36973 34.1425 4.31195 33.4539 3.43828 32.5634C2.54761 31.6889 1.85843 30.6306 1.41878 29.4624C0.986533 28.3477 0.692533 27.0772 0.605033 25.2152C0.585543 24.7999 0.568043 24.3846 0.552533 23.9692L0.543783 23.6297C0.51152 22.353 0.496935 21.076 0.500033 19.7989V16.2009C0.495149 14.9245 0.507984 13.648 0.538533 12.3719L0.550783 12.0324C0.564783 11.6404 0.582283 11.2519 0.603283 10.7864C0.690783 8.92266 0.984783 7.65391 1.41703 6.53741C1.85694 5.3695 2.54747 4.31219 3.44003 3.43991C4.3131 2.54873 5.37022 1.85892 6.53753 1.41867C7.65403 0.986415 8.92278 0.692415 10.7865 0.604915L12.0325 0.552415L12.372 0.543665C13.6481 0.511418 14.9246 0.496833 16.201 0.499915L19.799 0.501665ZM18 9.25166C16.8407 9.23527 15.6896 9.44946 14.6137 9.88178C13.5379 10.3141 12.5587 10.956 11.733 11.77C10.9074 12.5841 10.2517 13.5541 9.80424 14.6237C9.35674 15.6934 9.12629 16.8413 9.12629 18.0008C9.12629 19.1603 9.35674 20.3082 9.80424 21.3778C10.2517 22.4475 10.9074 23.4175 11.733 24.2316C12.5587 25.0456 13.5379 25.6875 14.6137 26.1198C15.6896 26.5521 16.8407 26.7663 18 26.7499C20.3207 26.7499 22.5463 25.828 24.1872 24.1871C25.8282 22.5462 26.75 20.3206 26.75 17.9999C26.75 15.6793 25.8282 13.4537 24.1872 11.8127C22.5463 10.1718 20.3207 9.25166 18 9.25166ZM18 12.7517C18.6974 12.7388 19.3904 12.8651 20.0384 13.123C20.6865 13.381 21.2766 13.7655 21.7744 14.2541C22.2722 14.7427 22.6676 15.3256 22.9376 15.9688C23.2075 16.6119 23.3466 17.3024 23.3468 17.9999C23.3469 18.6974 23.208 19.3879 22.9382 20.0312C22.6685 20.6744 22.2733 21.2574 21.7756 21.7462C21.278 22.235 20.688 22.6197 20.0401 22.8779C19.3921 23.1361 18.6992 23.2625 18.0018 23.2499C16.6094 23.2499 15.274 22.6968 14.2895 21.7122C13.3049 20.7277 12.7518 19.3923 12.7518 17.9999C12.7518 16.6075 13.3049 15.2722 14.2895 14.2876C15.274 13.303 16.6094 12.7499 18.0018 12.7499L18 12.7517ZM27.1875 6.62666C26.623 6.64926 26.089 6.88943 25.6976 7.29686C25.3061 7.7043 25.0875 8.2474 25.0875 8.81241C25.0875 9.37743 25.3061 9.92053 25.6976 10.328C26.089 10.7354 26.623 10.9756 27.1875 10.9982C27.7677 10.9982 28.3241 10.7677 28.7343 10.3575C29.1446 9.94722 29.375 9.39083 29.375 8.81066C29.375 8.2305 29.1446 7.6741 28.7343 7.26387C28.3241 6.85363 27.7677 6.62317 27.1875 6.62317V6.62666Z" fill="black"/>
</svg>
