<svg width="36" height="36" viewBox="0 0 36 36" fill="none" xmlns="http://www.w3.org/2000/svg">
<path d="M23.8783 25.4375C23.4661 27.5699 22.8851 29.4651 22.1886 31.0331C21.4711 32.6466 20.6731 33.8183 19.8979 34.5559C19.134 35.2812 18.4961 35.5 18 35.5C17.5039 35.5 16.866 35.283 16.1021 34.555C15.3269 33.8182 14.5289 32.6475 13.8123 31.0331C13.1149 29.4651 12.5348 27.5699 12.1218 25.4375H23.8783ZM26.1043 25.4375C25.3824 29.4161 24.0979 32.7438 22.4739 34.9225C27.5156 33.5934 31.6666 30.0706 33.8454 25.4375H26.1043ZM34.6985 23.25H26.435C26.6406 21.5788 26.75 19.8183 26.75 18C26.75 16.3401 26.659 14.7275 26.4875 13.1875H34.8298C35.2758 14.7527 35.5013 16.3725 35.5 18C35.5 19.8288 35.22 21.5928 34.6985 23.25ZM24.2309 23.25H11.7691C11.546 21.5089 11.4352 19.7553 11.4375 18C11.4358 16.3918 11.5284 14.7849 11.7149 13.1875H24.2851C24.4716 14.7849 24.5642 16.3918 24.5625 18C24.5648 19.7553 24.4546 21.509 24.2309 23.25ZM9.565 23.25C9.35354 21.508 9.24835 19.7548 9.25 18C9.25 16.3401 9.341 14.7275 9.5125 13.1875H1.17113C0.724852 14.7527 0.498969 16.3724 0.500004 18C0.500004 19.8288 0.780003 21.5928 1.3015 23.25H9.565ZM2.15375 25.4375C4.3325 30.0706 8.48438 33.5934 13.5261 34.9225C11.9021 32.7438 10.6176 29.4161 9.89575 25.4375H2.15375ZM22.1895 4.96687C22.9333 6.64162 23.5458 8.68913 23.9614 11H12.0395C12.456 8.69 13.0676 6.64162 13.8123 4.96687C14.5298 3.35337 15.3269 2.18175 16.1021 1.44412C16.866 0.71875 17.5039 0.5 18 0.5C18.4961 0.5 19.134 0.717 19.8979 1.445C20.6731 2.18175 21.4711 3.3525 22.1878 4.96687H22.1895ZM26.1804 11H34.044C31.9256 6.15163 27.6731 2.44775 22.4739 1.0775C24.1574 3.335 25.4751 6.828 26.1804 11ZM1.956 11H9.81963C10.5249 6.828 11.8426 3.335 13.5261 1.0775C8.32688 2.44775 4.07438 6.15163 1.956 11Z" fill="black"/>
</svg>
